<?xml version="1.0" encoding="UTF-8" standalone="no"?>
<!-- Created with Inkscape (http://www.inkscape.org/) -->

<svg
   width="74.381073mm"
   height="20mm"
   viewBox="0 0 106.25868 28.57143"
   version="1.1"
   id="svg1"
   inkscape:version="1.4 (86a8ad7, 2024-10-11)"
   sodipodi:docname="로고_남색바탕_골드글자.svg"
   xmlns:inkscape="http://www.inkscape.org/namespaces/inkscape"
   xmlns:sodipodi="http://sodipodi.sourceforge.net/DTD/sodipodi-0.dtd"
   xmlns="http://www.w3.org/2000/svg"
   xmlns:svg="http://www.w3.org/2000/svg">
  <sodipodi:namedview
     id="namedview1"
     pagecolor="#002147"
     bordercolor="#000000"
     borderopacity="0.25"
     inkscape:showpageshadow="2"
     inkscape:pageopacity="0.0"
     inkscape:pagecheckerboard="0"
     inkscape:deskcolor="#d1d1d1"
     inkscape:document-units="mm"
     inkscape:zoom="1.4412757"
     inkscape:cx="514.12787"
     inkscape:cy="156.1117"
     inkscape:window-width="2560"
     inkscape:window-height="1368"
     inkscape:window-x="1912"
     inkscape:window-y="-8"
     inkscape:window-maximized="1"
     inkscape:current-layer="layer1"
     showgrid="false" />
  <defs
     id="defs1">
    <rect
       x="310.06662"
       y="265.91156"
       width="4.9061174"
       height="131.48395"
       id="rect2" />
  </defs>
  <g
     inkscape:label="Layer 1"
     inkscape:groupmode="layer"
     id="layer1"
     transform="translate(-22.427723,-36.106261)">
    <text
       xml:space="preserve"
       transform="scale(0.26458333)"
       id="text2"
       style="font-style:normal;font-variant:normal;font-weight:normal;font-stretch:normal;font-size:85.3333px;font-family:Cinzel;-inkscape-font-specification:Cinzel;text-align:start;letter-spacing:0px;writing-mode:lr-tb;direction:ltr;white-space:pre;shape-inside:url(#rect2);display:inline;fill:#002147;fill-opacity:1" />
    <path
       style="font-weight:600;font-size:22.5778px;font-family:'Inter 24pt';-inkscape-font-specification:'Inter 24pt Semi-Bold';letter-spacing:0px;fill:#b4975a;stroke-width:0.264583;fill-opacity:1"
       d="m 38.366527,58.594071 5.80982,-16.426232 h 3.69314 l 5.85392,16.426232 h -3.21911 l -3.16373,-8.725624 c -0.28663,-0.896645 -0.58796,-1.877809 -0.90399,-2.943493 -0.31603,-1.065684 -0.66881,-2.304082 -1.05833,-3.715195 l 1.27832,0.04589 c -0.38953,1.418462 -0.7423,2.660535 -1.05833,3.726219 -0.30869,1.065684 -0.60267,2.043174 -0.88195,2.932469 l -3.17475,8.67973 z m 17.16486,0 V 42.167839 h 6.29489 c 1.22737,0 2.27468,0.216812 3.14193,0.650435 0.87459,0.433623 1.53973,1.043636 1.9954,1.830037 0.46302,0.786401 0.69453,1.712444 0.69453,2.778127 0,1.050985 -0.23886,1.966004 -0.71658,2.745055 -0.47772,0.771703 -1.16123,1.370691 -2.05052,1.796964 -0.88195,0.418924 -1.94396,0.628386 -3.18603,0.628386 h -4.45382 v -2.42535 h 4.29948 c 0.69086,0 1.27147,-0.110243 1.74184,-0.330729 0.47037,-0.220487 0.82683,-0.536517 1.06936,-0.948091 0.24253,-0.411575 0.3638,-0.90032 0.3638,-1.466235 0,-0.580614 -0.12127,-1.076708 -0.3638,-1.488282 -0.24253,-0.418924 -0.59899,-0.738629 -1.06936,-0.959116 -0.47037,-0.227836 -1.05465,-0.341754 -1.75286,-0.341754 h -3.07579 v 13.956785 z m 9.32658,0 -3.90261,-7.430389 h 3.175 l 3.96875,7.430389 z m 4.24436,-13.923712 v -2.50252 h 13.10791 v 2.50252 h -5.08221 v 13.923712 h -2.93247 V 44.670359 Z m 21.90531,14.177272 c -1.33761,0 -2.50619,-0.249885 -3.50573,-0.749654 -0.99954,-0.507119 -1.77492,-1.205325 -2.32613,-2.09462 -0.55121,-0.896645 -0.82682,-1.929256 -0.82682,-3.097833 V 42.167839 h 2.91042 v 10.506174 c 0,0.690857 0.15066,1.304544 0.45199,1.841061 0.30868,0.536517 0.7423,0.959116 1.30087,1.267797 0.56592,0.308681 1.23105,0.463021 1.9954,0.463021 0.76435,0 1.42581,-0.15434 1.98438,-0.463021 0.55857,-0.308681 0.98852,-0.73128 1.28985,-1.267797 0.30868,-0.536517 0.46302,-1.150204 0.46302,-1.841061 V 42.167839 h 2.89939 v 10.737685 c 0,1.168577 -0.27561,2.201188 -0.82682,3.097833 -0.54387,0.889295 -1.31557,1.587501 -2.31511,2.09462 -0.99219,0.499769 -2.15709,0.749654 -3.49471,0.749654 z m 15.467123,0.01102 c -1.32292,0 -2.4621,-0.213137 -3.41754,-0.63941 -0.95544,-0.426274 -1.69407,-1.039961 -2.21589,-1.841061 -0.52181,-0.80845 -0.79374,-1.77859 -0.81579,-2.91042 h 2.87734 c 0.0221,0.624711 0.18376,1.153879 0.48507,1.587502 0.30133,0.426273 0.71658,0.753328 1.24575,0.981164 0.52917,0.220486 1.14285,0.330729 1.84106,0.330729 0.66881,0 1.2531,-0.09554 1.75287,-0.286632 0.49977,-0.198437 0.88929,-0.474045 1.16857,-0.826824 0.28663,-0.360127 0.42995,-0.779051 0.42995,-1.256772 0,-0.404225 -0.11392,-0.745978 -0.34175,-1.025261 -0.22049,-0.286633 -0.55489,-0.532842 -1.00321,-0.738629 -0.44097,-0.205787 -0.99587,-0.385851 -1.66468,-0.540192 l -1.80798,-0.440973 c -1.52136,-0.360127 -2.67156,-0.903994 -3.45061,-1.631599 -0.77171,-0.727605 -1.15756,-1.672021 -1.15756,-2.833249 0,-0.97014 0.25356,-1.819012 0.76068,-2.546617 0.51447,-0.734955 1.2237,-1.304544 2.12769,-1.708769 0.91135,-0.404225 1.95866,-0.606338 3.14193,-0.606338 1.19798,0 2.23794,0.205787 3.11989,0.617362 0.88929,0.411575 1.58015,0.995863 2.07257,1.752866 0.49977,0.749654 0.76435,1.627925 0.79375,2.634812 h -2.8112 c -0.0588,-0.793751 -0.37483,-1.411112 -0.94809,-1.852085 -0.57327,-0.448322 -1.3266,-0.672483 -2.25999,-0.672483 -0.61001,0 -1.14653,0.09554 -1.60955,0.286632 -0.45567,0.191088 -0.81213,0.455672 -1.06936,0.793751 -0.24989,0.330729 -0.37483,0.712906 -0.37483,1.146529 0,0.411574 0.11759,0.757002 0.35278,1.036285 0.24254,0.279283 0.58062,0.514468 1.01424,0.705557 0.43362,0.191088 0.94809,0.356453 1.5434,0.496094 l 1.60955,0.385851 c 0.74231,0.169039 1.41112,0.385851 2.00643,0.650435 0.60266,0.264583 1.11713,0.584288 1.5434,0.959115 0.43363,0.374827 0.76436,0.812125 0.99219,1.311894 0.22784,0.499769 0.34176,1.076709 0.34176,1.730818 0,0.992188 -0.25356,1.859434 -0.76068,2.601738 -0.49977,0.742304 -1.22002,1.319243 -2.16077,1.730818 -0.93339,0.411575 -2.05052,0.617362 -3.35139,0.617362 z"
       id="text1-8-8"
       aria-label="ARTUS"
       sodipodi:nodetypes="ccccccsccccccccsccsccsccssssccscccccccccccccccccsccsccsccsscsccsccssscccccsccscccccsccscccccsccscsccccssccs" />
    <text
       xml:space="preserve"
       style="font-style:normal;font-variant:normal;font-weight:600;font-stretch:normal;font-size:7.05556px;line-height:0;font-family:'Inter 24pt';-inkscape-font-specification:'Inter 24pt Semi-Bold';text-align:start;letter-spacing:0px;writing-mode:lr-tb;direction:ltr;text-anchor:start;fill:#a92147;fill-opacity:1;stroke-width:0.264583"
       x="23.13055"
       y="74.531769"
       id="text1"><tspan
         sodipodi:role="line"
         id="tspan1"
         style="stroke-width:0.264583"
         x="23.13055"
         y="74.531769" /></text>
  </g>
</svg>
